<svg xmlns="http://www.w3.org/2000/svg" xmlns:xlink="http://www.w3.org/1999/xlink" viewBox="0 0 98.058 71.705"><defs><style>.a,.b{fill:#fff;stroke:#be7fd1;}.b{stroke-linecap:round;}.c{filter:url(#a);}</style><filter id="a" x="0" y="0" width="98.058" height="71.705" filterUnits="userSpaceOnUse"><feOffset dy="3" input="SourceAlpha"/><feGaussianBlur stdDeviation="3" result="b"/><feFlood flood-opacity="0.741"/><feComposite operator="in" in2="b"/><feComposite in="SourceGraphic"/></filter></defs><g transform="translate(16.372 -16.575)"><g transform="translate(-37.649 16.332)"><g transform="translate(30.777 6.743)"><g class="c" transform="matrix(1, 0, 0, 1, -9.5, -6.5)"><path class="a" d="M63.74,23.9a24.681,24.681,0,0,0-46.117-6.588,19.756,19.756,0,0,0,2.141,39.4H62.587A16.423,16.423,0,0,0,63.74,23.9Z" transform="translate(9.5 2.5)"/></g></g></g><path class="b" d="M-8.976-31.284a5.158,5.158,0,0,0-4.378,1.936A8.284,8.284,0,0,0-14.828-24.2v1.012h5.28a1.516,1.516,0,0,1,1.122.418,1.459,1.459,0,0,1,.418,1.078,1.4,1.4,0,0,1-.418,1.034,1.516,1.516,0,0,1-1.122.418h-5.28V-1.716A1.694,1.694,0,0,1-15.29-.462a1.755,1.755,0,0,1-1.3.462,1.581,1.581,0,0,1-1.166-.462,1.694,1.694,0,0,1-.462-1.254V-20.24h-2.816a1.516,1.516,0,0,1-1.122-.418,1.4,1.4,0,0,1-.418-1.034,1.459,1.459,0,0,1,.418-1.078,1.516,1.516,0,0,1,1.122-.418h2.816v-.836a11.148,11.148,0,0,1,2.42-7.524,8.506,8.506,0,0,1,6.82-2.816,1.761,1.761,0,0,1,1.232.44,1.425,1.425,0,0,1,.484,1.1,1.425,1.425,0,0,1-.484,1.1A1.761,1.761,0,0,1-8.976-31.284Zm20.548,7A10.967,10.967,0,0,1,20.5-20.064a1.347,1.347,0,0,1,.352.924,1.5,1.5,0,0,1-.748,1.232,1.483,1.483,0,0,1-.836.264A1.764,1.764,0,0,1,18-18.3a9,9,0,0,0-2.9-2.178,8.349,8.349,0,0,0-3.52-.726A8.05,8.05,0,0,0,7.26-20.042a7.758,7.758,0,0,0-2.926,3.278A10.665,10.665,0,0,0,3.3-12.012,9.906,9.906,0,0,0,4.4-7.326,8.192,8.192,0,0,0,7.48-4.048,8.636,8.636,0,0,0,12.012-2.86a8.293,8.293,0,0,0,5.676-1.892,1.823,1.823,0,0,1,1.188-.484,1.515,1.515,0,0,1,.968.352A1.544,1.544,0,0,1,20.46-3.7a1.253,1.253,0,0,1-.44.968A11.3,11.3,0,0,1,12.012.22a11.912,11.912,0,0,1-6.16-1.606,11.554,11.554,0,0,1-4.29-4.4A12.539,12.539,0,0,1,0-12.012a13.164,13.164,0,0,1,1.5-6.314A11.116,11.116,0,0,1,5.632-22.7,11.321,11.321,0,0,1,11.572-24.288Z" transform="translate(34.575 68.5)"/></g></svg>