<svg xmlns="http://www.w3.org/2000/svg" xmlns:xlink="http://www.w3.org/1999/xlink" viewBox="0 0 127 109.277"><defs><style>.a{fill:#fff48f;}.b{fill:rgba(0,0,0,0);}.c{fill:#fff;stroke:#707070;}.d{filter:url(#a);}</style><filter id="a" x="43.161" y="0" width="83.838" height="83.539" filterUnits="userSpaceOnUse"><feOffset dy="3" input="SourceAlpha"/><feGaussianBlur stdDeviation="3" result="b"/><feFlood flood-opacity="0.161"/><feComposite operator="in" in2="b"/><feComposite in="SourceGraphic"/></filter></defs><g transform="translate(-127.907 -265.421)"><g class="d" transform="matrix(1, 0, 0, 1, 127.91, 265.42)"><path class="a" d="M18.238,13.388,12.851,8.032l-4.22,4.22,5.357,5.357ZM9.978,30.327H1v5.985H9.978ZM36.912.55H30.927V9.378h5.985V.55Zm22.3,11.7-4.22-4.22-5.357,5.357,4.22,4.22Zm-9.606,41,5.357,5.387,4.22-4.22L53.79,49.061l-4.19,4.19Zm8.26-22.924v5.985h8.978V30.327ZM33.919,15.364A17.956,17.956,0,1,0,51.875,33.32,17.97,17.97,0,0,0,33.919,15.364ZM30.927,66.089h5.985V57.261H30.927Zm-22.3-11.7,4.22,4.22,5.357-5.387L13.988,49Z" transform="translate(51.16 5.45)"/></g><g transform="translate(128.407 286.29)"><path class="b" d="M0,0H88.409V88.409H0Z"/><path class="c" d="M83.536,30.075A32.346,32.346,0,0,0,23.1,21.441,25.892,25.892,0,0,0,25.9,73.073H82.025a21.524,21.524,0,0,0,1.511-43Z" transform="translate(0 0.6)"/></g></g></svg>